<svg width="48" height="48" viewBox="0 0 48 48" fill="none" xmlns="http://www.w3.org/2000/svg">
<rect width="48" height="48" fill="white"/>
<path fill-rule="evenodd" clip-rule="evenodd" d="M0 0H48V48H0V0ZM11 35.63C11 35.97 11.057 36.305 11.166 36.621C7.84997 33.2579 5.99374 28.723 6 24C6 14.059 14.059 6 24 6C33.941 6 42 14.059 42 24C42.0064 28.7303 40.1444 33.2718 36.819 36.636C36.9754 36.2088 37.0323 35.7515 36.9853 35.299C36.9383 34.8465 36.7886 34.4106 36.5477 34.0247C36.3068 33.6388 35.9811 33.3129 35.5952 33.0719C35.2093 32.8309 34.7735 32.6811 34.321 32.634C26.563 31.831 21.485 31.754 13.689 32.616C12.9483 32.6995 12.2643 33.0532 11.7682 33.6095C11.272 34.1658 10.9985 34.8856 11 35.631V35.63ZM4 24C4 34.772 12.517 43.556 23.184 43.984C23.4098 43.9964 23.6359 44.0014 23.862 43.999L24 44C35.046 44 44 35.046 44 24C44 12.954 35.046 4 24 4C12.954 4 4 12.954 4 24ZM24 28C26.1217 28 28.1566 27.1571 29.6569 25.6569C31.1571 24.1566 32 22.1217 32 20C32 17.8783 31.1571 15.8434 29.6569 14.3431C28.1566 12.8429 26.1217 12 24 12C21.8783 12 19.8434 12.8429 18.3431 14.3431C16.8429 15.8434 16 17.8783 16 20C16 22.1217 16.8429 24.1566 18.3431 25.6569C19.8434 27.1571 21.8783 28 24 28V28Z" fill="url(#paint0_linear_4_3)"/>
<defs>
<linearGradient id="paint0_linear_4_3" x1="24" y1="0" x2="24" y2="48" gradientUnits="userSpaceOnUse">
<stop stop-color="#9D0097"/>
<stop offset="1" stop-color="#AF0000"/>
</linearGradient>
</defs>
</svg>
